HIERARCHY
ROOT Hips
{
    OFFSET   0.000000   0.000000   0.000000
    CHANNELS 6 Xposition Yposition Zposition Zrotation Xrotation Yrotation
    JOINT Chest
    {
        OFFSET   0.000000   8.007240   0.000000
        CHANNELS 3 Zrotation Xrotation Yrotation
        JOINT Chest2
        {
            OFFSET   0.000000  22.077100   0.000000
            CHANNELS 3 Zrotation Xrotation Yrotation
            JOINT Neck
            {
                OFFSET   0.000000  23.254800   0.000000
                CHANNELS 3 Zrotation Xrotation Yrotation
                JOINT Head
                {
                    OFFSET   0.000000  14.370000   1.956600
                    CHANNELS 3 Zrotation Xrotation Yrotation
                    End Site
                    {
                        OFFSET   0.000000  19.566000   0.000000
                    }
                }
            }
            JOINT LeftCollar
            {
                OFFSET   3.911900  19.017000  -0.467064
                CHANNELS 3 Zrotation Xrotation Yrotation
                JOINT LeftShoulder
                {
                    OFFSET  10.383700   0.000000   0.000000
                    CHANNELS 3 Zrotation Xrotation Yrotation
                    JOINT LeftElbow
                    {
                        OFFSET  26.662100   0.001476   0.000517
                        CHANNELS 3 Zrotation Xrotation Yrotation
                        JOINT LeftWrist
                        {
                            OFFSET  28.869000  -0.000025  -0.000106
                            CHANNELS 3 Zrotation Xrotation Yrotation
                            JOINT LeftFinger0
                            {
                                OFFSET   2.044660  -2.323460   3.252850
                                CHANNELS 3 Zrotation Xrotation Yrotation
                                JOINT LeftFinger01
                                {
                                    OFFSET   3.088130   0.000000   0.000000
                                    CHANNELS 3 Zrotation Xrotation Yrotation
                                    JOINT LeftFinger02
                                    {
                                        OFFSET   2.639460   0.000000   0.000000
                                        CHANNELS 3 Zrotation Xrotation Yrotation
                                        End Site
                                        {
                                            OFFSET   2.582190   0.000000   0.000000
                                        }
                                    }
                                }
                            }
                            JOINT LeftFinger1
                            {
                                OFFSET   8.364480   0.000000   3.252850
                                CHANNELS 3 Zrotation Xrotation Yrotation
                                JOINT LeftFinger11
                                {
                                    OFFSET   4.646930   0.000000   0.000000
                                    CHANNELS 3 Zrotation Xrotation Yrotation
                                    JOINT LeftFinger12
                                    {
                                        OFFSET   2.323460   0.000000   0.000000
                                        CHANNELS 3 Zrotation Xrotation Yrotation
                                        End Site
                                        {
                                            OFFSET   2.273050   0.000000   0.000000
                                        }
                                    }
                                }
                            }
                            JOINT LeftFinger2
                            {
                                OFFSET   8.364490   0.000015   1.078090
                                CHANNELS 3 Zrotation Xrotation Yrotation
                                JOINT LeftFinger21
                                {
                                    OFFSET   5.111620   0.000000   0.000000
                                    CHANNELS 3 Zrotation Xrotation Yrotation
                                    JOINT LeftFinger22
                                    {
                                        OFFSET   2.788160   0.000016   0.000000
                                        CHANNELS 3 Zrotation Xrotation Yrotation
                                        End Site
                                        {
                                            OFFSET   2.727660   0.000000   0.000000
                                        }
                                    }
                                }
                            }
                            JOINT LeftFinger3
                            {
                                OFFSET   7.899780   0.000017  -1.078090
                                CHANNELS 3 Zrotation Xrotation Yrotation
                                JOINT LeftFinger31
                                {
                                    OFFSET   4.646930   0.000000   0.000000
                                    CHANNELS 3 Zrotation Xrotation Yrotation
                                    JOINT LeftFinger32
                                    {
                                        OFFSET   2.323470   0.000000   0.000000
                                        CHANNELS 3 Zrotation Xrotation Yrotation
                                        End Site
                                        {
                                            OFFSET   2.273050   0.000000   0.000000
                                        }
                                    }
                                }
                            }
                            JOINT LeftFinger4
                            {
                                OFFSET   7.435090   0.000000  -3.252850
                                CHANNELS 3 Zrotation Xrotation Yrotation
                                JOINT LeftFinger41
                                {
                                    OFFSET   3.717550   0.000000   0.000000
                                    CHANNELS 3 Zrotation Xrotation Yrotation
                                    JOINT LeftFinger42
                                    {
                                        OFFSET   1.858770   0.000000   0.000000
                                        CHANNELS 3 Zrotation Xrotation Yrotation
                                        End Site
                                        {
                                            OFFSET   1.818440   0.000000   0.000000
                                        }
                                    }
                                }
                            }
                        }
                    }
                }
            }
            JOINT RightCollar
            {
                OFFSET  -3.911900  19.017000  -0.467063
                CHANNELS 3 Zrotation Xrotation Yrotation
                JOINT RightShoulder
                {
                    OFFSET -10.383700   0.000019   0.000000
                    CHANNELS 3 Zrotation Xrotation Yrotation
                    JOINT RightElbow
                    {
                        OFFSET -26.662100   0.001175   0.000102
                        CHANNELS 3 Zrotation Xrotation Yrotation
                        JOINT RightWrist
                        {
                            OFFSET -28.869000   0.000016  -0.000079
                            CHANNELS 3 Zrotation Xrotation Yrotation
                            JOINT RightFinger0
                            {
                                OFFSET  -2.044660  -2.323490   3.252850
                                CHANNELS 3 Zrotation Xrotation Yrotation
                                JOINT RightFinger01
                                {
                                    OFFSET  -3.088140   0.000000   0.000000
                                    CHANNELS 3 Zrotation Xrotation Yrotation
                                    JOINT RightFinger02
                                    {
                                        OFFSET  -2.639460   0.000000   0.000000
                                        CHANNELS 3 Zrotation Xrotation Yrotation
                                        End Site
                                        {
                                            OFFSET  -2.582190   0.000000   0.000000
                                        }
                                    }
                                }
                            }
                            JOINT RightFinger1
                            {
                                OFFSET  -8.364480   0.000000   3.252850
                                CHANNELS 3 Zrotation Xrotation Yrotation
                                JOINT RightFinger11
                                {
                                    OFFSET  -4.646930   0.000000   0.000000
                                    CHANNELS 3 Zrotation Xrotation Yrotation
                                    JOINT RightFinger12
                                    {
                                        OFFSET  -2.323470   0.000000   0.000000
                                        CHANNELS 3 Zrotation Xrotation Yrotation
                                        End Site
                                        {
                                            OFFSET  -2.273050   0.000000   0.000000
                                        }
                                    }
                                }
                            }
                            JOINT RightFinger2
                            {
                                OFFSET  -8.364480   0.000000   1.078090
                                CHANNELS 3 Zrotation Xrotation Yrotation
                                JOINT RightFinger21
                                {
                                    OFFSET  -5.111620   0.000000   0.000000
                                    CHANNELS 3 Zrotation Xrotation Yrotation
                                    JOINT RightFinger22
                                    {
                                        OFFSET  -2.788160   0.000000   0.000000
                                        CHANNELS 3 Zrotation Xrotation Yrotation
                                        End Site
                                        {
                                            OFFSET  -2.727660   0.000000   0.000000
                                        }
                                    }
                                }
                            }
                            JOINT RightFinger3
                            {
                                OFFSET  -7.899780   0.000000  -1.078090
                                CHANNELS 3 Zrotation Xrotation Yrotation
                                JOINT RightFinger31
                                {
                                    OFFSET  -4.646930   0.000000   0.000000
                                    CHANNELS 3 Zrotation Xrotation Yrotation
                                    JOINT RightFinger32
                                    {
                                        OFFSET  -2.323470   0.000000   0.000000
                                        CHANNELS 3 Zrotation Xrotation Yrotation
                                        End Site
                                        {
                                            OFFSET  -2.273050   0.000000   0.000000
                                        }
                                    }
                                }
                            }
                            JOINT RightFinger4
                            {
                                OFFSET  -7.435090   0.000000  -3.252850
                                CHANNELS 3 Zrotation Xrotation Yrotation
                                JOINT RightFinger41
                                {
                                    OFFSET  -3.717550   0.000000   0.000000
                                    CHANNELS 3 Zrotation Xrotation Yrotation
                                    JOINT RightFinger42
                                    {
                                        OFFSET  -1.858770   0.000000   0.000000
                                        CHANNELS 3 Zrotation Xrotation Yrotation
                                        End Site
                                        {
                                            OFFSET  -1.818440   0.000000   0.000000
                                        }
                                    }
                                }
                            }
                        }
                    }
                }
            }
        }
    }
    JOINT LeftHip
    {
        OFFSET   9.783040   0.000000   0.000000
        CHANNELS 3 Zrotation Xrotation Yrotation
        JOINT LeftKnee
        {
            OFFSET   0.000032 -41.789100  -0.002222
            CHANNELS 3 Zrotation Xrotation Yrotation
            JOINT LeftAnkle
            {
                OFFSET   0.000087 -41.133200  -0.000135
                CHANNELS 3 Zrotation Xrotation Yrotation
                JOINT LeftToe
                {
                    OFFSET   0.000000  -6.358960  14.674500
                    CHANNELS 3 Zrotation Xrotation Yrotation
                    End Site
                    {
                        OFFSET   0.000000   0.000000   3.913200
                    }
                }
            }
        }
    }
    JOINT RightHip
    {
        OFFSET  -9.783040   0.000000   0.000000
        CHANNELS 3 Zrotation Xrotation Yrotation
        JOINT RightKnee
        {
            OFFSET   0.000047 -41.789100  -0.000896
            CHANNELS 3 Zrotation Xrotation Yrotation
            JOINT RightAnkle
            {
                OFFSET  -0.000117 -41.133300  -0.000248
                CHANNELS 3 Zrotation Xrotation Yrotation
                JOINT RightToe
                {
                    OFFSET   0.000000  -6.358970  14.674500
                    CHANNELS 3 Zrotation Xrotation Yrotation
                    End Site
                    {
                        OFFSET   0.000000   0.000000   3.913200
                    }
                }
            }
        }
    }
}
MOTION
Frames: 6
Frame Time:   0.016667
 -0.797975  90.090700  -0.750547  -0.903044  -1.740080  -4.480910   0.321936   1.909470  -0.108146   0.648027   3.818320  -0.227230   1.687170  -0.225794  -0.002277   2.766850  -0.456637   7.622070  -3.890180   0.144291   8.017210 -73.689100  19.768200   0.431017  -4.271850 -10.759600 -10.973500  13.029600  -5.297440   6.942220  32.929900  18.873500 -61.690300 -28.692200   0.001895   0.001046  -9.346110   0.001058  -0.001438 -25.516500   6.582240 -13.498900 -21.516900   0.002174   0.000313 -15.072000  -0.010904   0.013044 -28.044700   1.446140  -2.720580 -32.589800  -0.000414   0.001883 -21.704800  -0.001615  -0.000108 -25.758000   1.136720  -2.353630 -25.781000   0.001502   0.001998 -17.174500  -0.005425   0.002263 -26.874300  -0.788861   1.540840 -40.326900  -0.000434   0.001168 -26.858100  -0.001534   0.003963   9.125360   3.350010   7.661060  68.424200   7.370790  -4.318970   3.480490  -9.064580  10.421900 -11.556900 -23.517800   5.078230 -39.398900  34.158000  70.320000  29.634700   0.002003  -0.001745   9.817330   0.010339  -0.001069  25.319500   0.734369   1.553850  20.724100   0.004922  -0.005410  14.506900   0.002214  -0.003229  27.363000  -0.388330  -0.752381  28.560500  -0.004009  -0.005124  19.021300  -0.001639  -0.002533  27.137300  -2.467250  -4.800930  28.006100  -0.010158  -0.003851  18.652100  -0.000393  -0.001932  30.758200  -4.237200  -7.077090  46.530500  -0.003843  -0.001380  30.989300  -0.002699   0.000578   0.321264   3.208720   5.311260   0.317668   0.257749  14.926600  -3.957280  -3.432670   7.223110  -0.000000   0.000000  -0.000000   0.966575   1.297930  -8.339940  -0.134478   2.869120  -7.311610  -9.652720   1.241450   1.448290   0.000000   0.000000   0.000000
 -0.797896  90.090700  -0.750773  -0.902950  -1.749980  -4.459610   0.320023   1.916220  -0.104193   0.644080   3.831830  -0.219290   1.680660  -0.203867  -0.002228   2.758290  -0.412419   7.646810  -3.893340   0.139226   8.017210 -73.684400  19.752200   0.437974  -4.261530 -10.751500 -10.966400  13.029800  -5.295100   6.947580  32.916300  18.889500 -61.710800 -28.714900   0.001886   0.001059  -9.356040   0.001055  -0.001446 -25.521200   6.577860 -13.489100 -21.519100   0.002177   0.000312 -15.071900  -0.010903   0.013048 -28.044500   1.449990  -2.724000 -32.576100  -0.000414   0.001880 -21.695700  -0.001616  -0.000110 -25.757800   1.139200  -2.359100 -25.781000   0.001503   0.001996 -17.174500  -0.005430   0.002263 -26.874400  -0.788878   1.551230 -40.316100  -0.000430   0.001165 -26.858300  -0.001534   0.003962   9.132590   3.349930   7.655630  68.439300   7.368820  -4.333190   3.484830  -9.090920  10.407600 -11.534200 -23.522900   5.090790 -39.389200  34.155800  70.343800  29.634700   0.001995  -0.001745   9.817330   0.010344  -0.001060  25.324600   0.734370   1.553510  20.728300   0.004918  -0.005408  14.509800   0.002212  -0.003227  27.360500  -0.388564  -0.737117  28.551400  -0.004015  -0.005123  19.015200  -0.001638  -0.002530  27.135400  -2.455670  -4.779270  27.993200  -0.010161  -0.003850  18.643400  -0.000397  -0.001931  30.753600  -4.218530  -7.047900  46.520200  -0.003839  -0.001376  30.982400  -0.002694   0.000581   0.320404   3.150120   5.302850   0.324470   0.323229  14.926700  -3.957930  -3.427610   7.212620  -0.000000   0.000000   0.000000   0.967790   1.309570  -8.339960  -0.132834   2.872570  -7.318730  -9.652210   1.241440   1.440510   0.000000   0.000000   0.000000
 -0.797749  90.090700  -0.750999  -0.903089  -1.768650  -4.424110   0.317147   1.926930  -0.097178   0.638110   3.853290  -0.205209   1.667140  -0.160710  -0.002149   2.738820  -0.325353   7.694770  -3.899350   0.130726   8.017210 -73.677100  19.736200   0.447774  -4.245530 -10.743600 -10.949700  13.028900  -5.282020   6.955460  32.904600  18.902400 -61.736900 -28.737500   0.001858   0.001072  -9.368740   0.001043  -0.001462 -25.528700   6.573470 -13.479300 -21.523300   0.002182   0.000308 -15.071800  -0.010903   0.013059 -28.043900   1.457600  -2.733320 -32.562400  -0.000414   0.001872 -21.686600  -0.001620  -0.000117 -25.757400   1.143960  -2.369380 -25.781000   0.001506   0.001991 -17.174600  -0.005443   0.002262 -26.874500  -0.788913   1.561620 -40.305300  -0.000418   0.001155 -26.858600  -0.001534   0.003958   9.144630   3.349870   7.647860  68.463100   7.366770  -4.356410   3.490970  -9.117560  10.382900 -11.493600 -23.527700   5.110470 -39.383000  34.162100  70.383900  29.634700   0.001982  -0.001740   9.817330   0.010355  -0.001042  25.329800   0.734372   1.551100  20.732500   0.004910  -0.005399  14.512700   0.002208  -0.003220  27.354200  -0.388893  -0.721853  28.525500  -0.004029  -0.005120  18.998000  -0.001633  -0.002523  27.129700  -2.444090  -4.757620  27.964600  -0.010171  -0.003847  18.624400  -0.000405  -0.001927  30.746400  -4.199870  -7.018710  46.506100  -0.003828  -0.001361  30.973000  -0.002680   0.000588   0.319715   3.091540   5.290950   0.331274   0.388710  14.926500  -3.959410  -3.420370   7.193100  -0.000000   0.000000  -0.000000   0.970618   1.334150  -8.339860  -0.130052   2.875970  -7.333140  -9.651550   1.241310   1.426150   0.000000   0.000000   0.000000
 -0.797565  90.088900  -0.749521  -0.905041  -1.788080  -4.395480   0.315280   1.934570  -0.090821   0.634234   3.868600  -0.192473   1.650660  -0.112947  -0.002076   2.711990  -0.229021   7.745780  -3.905380   0.122052   8.021860 -73.671300  19.753300   0.452180  -4.233140 -10.745500 -10.924000  13.026300  -5.247890   6.960280  32.894700  18.878700 -61.741900 -28.737300   0.001807   0.001057  -9.371600   0.001022  -0.001481 -25.533600   6.578970 -13.488100 -21.528100   0.002188   0.000300 -15.072000  -0.010904   0.013080 -28.042900   1.468770  -2.753550 -32.570400  -0.000413   0.001859 -21.692000  -0.001625  -0.000126 -25.759600   1.150630  -2.383180 -25.783600   0.001511   0.001982 -17.174800  -0.005465   0.002260 -26.874700  -0.788966   1.555060 -40.310800  -0.000399   0.001140 -26.858700  -0.001534   0.003951   9.153410   3.351000   7.643940  68.479800   7.368740  -4.378200   3.497520  -9.116420  10.364900 -11.453600 -23.519400   5.126290 -39.399000  34.197200  70.414000  29.644600   0.001973  -0.001699   9.822130   0.010370  -0.001021  25.320700   0.727596   1.536370  20.724900   0.004902  -0.005376  14.507400   0.002203  -0.003204  27.343600  -0.389034  -0.730125  28.477400  -0.004049  -0.005099  18.966000  -0.001625  -0.002515  27.119900  -2.447450  -4.766160  27.923900  -0.010188  -0.003833  18.597300  -0.000417  -0.001921  30.743000  -4.200740  -7.021110  46.501000  -0.003808  -0.001332  30.969600  -0.002661   0.000597   0.324325   3.178450   5.285470   0.322672   0.321367  14.924800  -3.966160  -3.417740   7.173150   0.000000   0.000000   0.000000   0.974707   1.366760  -8.337380  -0.127730   2.869980  -7.349730  -9.651210   1.239530   1.411600   0.000000   0.000000   0.000000
 -0.797424  90.085900  -0.745973  -0.908786  -1.810200  -4.367260   0.314246   1.941240  -0.083644   0.631871   3.881970  -0.178110   1.631110  -0.055956  -0.002033   2.679550  -0.113863   7.807810  -3.913010   0.116811   8.031910 -73.668200  19.780700   0.453813  -4.223690 -10.748400 -10.895700  13.027000  -5.211570   6.962430  32.880300  18.849300 -61.735600 -28.737000   0.001743   0.001026  -9.372440   0.000995  -0.001510 -25.537000   6.587140 -13.501400 -21.532500   0.002197   0.000290 -15.072600  -0.010907   0.013107 -28.042200   1.476180  -2.767870 -32.582600  -0.000412   0.001841 -21.700000  -0.001631  -0.000139 -25.763100   1.155020  -2.392170 -25.787300   0.001518   0.001971 -17.174900  -0.005495   0.002259 -26.874800  -0.789001   1.548130 -40.318800  -0.000374   0.001121 -26.858700  -0.001532   0.003942   9.163210   3.355030   7.642380  68.494100   7.383940  -4.391120   3.504120  -9.115490  10.339800 -11.416300 -23.498400   5.134480 -39.420900  34.241100  70.440300  29.656300   0.001959  -0.001637   9.828140   0.010392  -0.000996  25.309100   0.718551   1.519080  20.715200   0.004891  -0.005346  14.500600   0.002195  -0.003184  27.332400  -0.389082  -0.738396  28.426100  -0.004076  -0.005069  18.931800  -0.001614  -0.002503  27.109900  -2.450800  -4.774700  27.881400  -0.010211  -0.003814  18.569000  -0.000434  -0.001911  30.741500  -4.205020  -7.028570  46.499700  -0.003783  -0.001295  30.968800  -0.002636   0.000610   0.328934   3.265350   5.283500   0.314075   0.254024  14.921100  -3.977070  -3.415180   7.150980  -0.000000   0.000000   0.000000   0.979268   1.401420  -8.330690  -0.126004   2.863960  -7.369890  -9.650940   1.236060   1.395670  -0.000000   0.000000  -0.000000
 -0.797393  90.083500  -0.741013  -0.913553  -1.834120  -4.340430   0.314085   1.946630  -0.075371   0.631214   3.892800  -0.161572   1.609550   0.009079  -0.002066   2.644180   0.018113   7.882200  -3.922640   0.116888   8.044070 -73.669800  19.799300   0.453915  -4.219870 -10.752200 -10.874500  13.034600  -5.191740   6.959520  32.881700  18.833000 -61.716100 -28.737100   0.001677   0.000995  -9.373600   0.000965  -0.001562 -25.537500   6.592300 -13.510700 -21.533800   0.002210   0.000281 -15.073200  -0.010909   0.013139 -28.042400   1.474910  -2.765390 -32.590900  -0.000412   0.001820 -21.705100  -0.001640  -0.000155 -25.765000   1.154260  -2.390210 -25.789200   0.001527   0.001957 -17.174900  -0.005532   0.002256 -26.873900  -0.788996   1.547710 -40.322900  -0.000342   0.001097 -26.857700  -0.001530   0.003932   9.176040   3.362430   7.644450  68.506700   7.430210  -4.391330   3.507540  -9.124480  10.296500 -11.389200 -23.465600   5.127680 -39.440700  34.273600  70.463100  29.658400   0.001928  -0.001588   9.829430   0.010422  -0.000974  25.306100   0.715904   1.513680  20.712800   0.004871  -0.005314  14.498900   0.002184  -0.003165  27.323600  -0.386502  -0.738362  28.386100  -0.004111  -0.005045  18.905100  -0.001601  -0.002485  27.102700  -2.450530  -4.774510  27.850000  -0.010241  -0.003803  18.548100  -0.000454  -0.001897  30.749600  -4.217770  -7.046380  46.514300  -0.003758  -0.001254  30.978500  -0.002605   0.000628   0.335846   3.189720   5.286920   0.320408   0.349262  14.913500  -3.988060  -3.409430   7.127480   0.000000   0.000000   0.000000   0.984907   1.426200  -8.318290  -0.125139   2.869910  -7.395040  -9.654740   1.231800   1.379860   0.000000   0.000000   0.000000
